<?xml version="1.0" encoding="UTF-8" standalone="no"?>
<!DOCTYPE svg PUBLIC "-//W3C//DTD SVG 1.1//EN" "http://www.w3.org/Graphics/SVG/1.1/DTD/svg11.dtd">
<svg xmlns="http://www.w3.org/2000/svg" width="901" height="900" viewBox="1643 1604 96704 96575">
<path d="M 97819 50153 L 97819 51361 L 97695 51361 L 97695 52560 L 97478 52560 L 97478 53816 L 98081 53816 L 98081 54975 L 97418 54975 L 97418 56200 L 97473 56200 L 97473 57459 L 97673 57459 L 97673 58694 L 97628 58694 L 97628 59810 L 96976 59810 L 96976 60944 L 96485 60944 L 96485 62061 L 95974 62061 L 95974 63248 L 95748 63248 L 95748 64662 L 96214 64662 L 96214 65764 L 95642 65764 L 95642 66755 L 94801 66755 L 94801 67896 L 94390 67896 L 94390 69110 L 94141 69110 L 94141 70168 L 93526 70168 L 93526 71446 L 93369 71446 L 93369 72267 L 92298 72267 L 92298 73226 L 91531 73226 L 91531 74355 L 91073 74355 L 91073 75528 L 90666 75528 L 90666 76633 L 90131 76633 L 90131 77691 L 89515 77691 L 89515 78771 L 88919 78771 L 88919 79538 L 87908 79538 L 87908 80478 L 87135 80478 L 87135 81550 L 86514 81550 L 86514 81966 L 85154 81966 L 85154 83369 L 84879 83369 L 84879 84065 L 83848 84065 L 83848 84550 L 82633 84550 L 82633 85553 L 81914 85553 L 81914 86608 L 81224 86608 L 81224 87400 L 80297 87400 L 80297 87882 L 79129 87882 L 79129 89069 L 78496 89069 L 78496 89747 L 77476 89747 L 77476 89792 L 76042 89792 L 76042 90412 L 75009 90412 L 75009 91317 L 74144 91317 L 74144 91746 L 72996 91746 L 72996 92544 L 72050 92544 L 72050 93038 L 70940 93038 L 70940 93570 L 69850 93570 L 69850 93848 L 68650 93848 L 68650 94995 L 67806 94995 L 67806 95319 L 66619 95319 L 66619 95177 L 65280 95177 L 65280 95556 L 64133 95556 L 64133 96445 L 63128 96445 L 63128 96494 L 61879 96494 L 61879 96939 L 60734 96939 L 60734 97073 L 59516 97073 L 59516 97437 L 58345 97437 L 58345 97884 L 57178 97884 L 57178 97310 L 55871 97310 L 55871 97628 L 54689 97628 L 54689 97534 L 53466 97534 L 53466 97639 L 52263 97639 L 52263 98179 L 51066 98179 L 51066 98009 L 49846 98009 L 49846 97587 L 48641 97587 L 48641 97442 L 47441 97442 L 47441 97554 L 46225 97554 L 46225 97865 L 44977 97865 L 44977 97399 L 43808 97399 L 43808 97907 L 42503 97907 L 42503 96814 L 41454 96814 L 41454 97405 L 40099 97405 L 40099 96388 L 39078 96388 L 39078 96382 L 37832 96382 L 37832 96415 L 36557 96415 L 36557 95283 L 35632 95283 L 35632 95832 L 34169 95832 L 34169 94609 L 33315 94609 L 33315 94140 L 32203 94140 L 32203 93620 L 31115 93620 L 31115 93612 L 29791 93612 L 29791 92816 L 28827 92816 L 28827 92854 L 27439 92854 L 27439 92120 L 26444 92120 L 26444 91350 L 25479 91350 L 25479 91029 L 24243 91029 L 24243 90150 L 23354 90150 L 23354 88965 L 22693 88965 L 22693 88616 L 21452 88616 L 21452 87622 L 20684 87622 L 20684 87088 L 19560 87088 L 19560 86108 L 18800 86108 L 18800 85166 L 18022 85166 L 18022 84526 L 16968 84526 L 16968 83798 L 15983 83798 L 15983 83275 L 14768 83275 L 14768 82119 L 14219 82119 L 14219 81229 L 13385 81229 L 13385 80353 L 12529 80353 L 12529 78959 L 12338 78959 L 12338 78258 L 11257 78258 L 11257 77432 L 10316 77432 L 10316 76306 L 9804 76306 L 9804 75257 L 9186 75257 L 9186 74070 L 8808 74070 L 8808 73346 L 7617 73346 L 7617 72112 L 7336 72112 L 7336 71130 L 6571 71130 L 6571 69839 L 6453 69839 L 6453 68884 L 5601 68884 L 5601 67730 L 5195 67730 L 5195 66371 L 5358 66371 L 5358 65433 L 4369 65433 L 4369 64085 L 4595 64085 L 4595 62951 L 4183 62951 L 4183 61942 L 3257 61942 L 3257 60761 L 2939 60761 L 2939 59474 L 3133 59474 L 3133 58235 L 3186 58235 L 3186 57057 L 2924 57057 L 2924 55964 L 1943 55964 L 1943 54727 L 1983 54727 L 1983 53526 L 1643 53526 L 1643 52258 L 2454 52258 L 2454 51063 L 1936 51063 L 1936 50143 L 94800 50143 L 94800 48628 L 1967 48628 L 1967 47420 L 2174 47420 L 2174 46235 L 2572 46235 L 2572 45009 L 2439 45009 L 2439 43789 L 2455 43789 L 2455 42617 L 2817 42617 L 2817 41320 L 2452 41320 L 2452 40171 L 2941 40171 L 2941 39071 L 3579 39071 L 3579 37926 L 3978 37926 L 3978 36593 L 3706 36593 L 3706 35458 L 4168 35458 L 4168 34184 L 4208 34184 L 4208 33283 L 5303 33283 L 5303 32050 L 5479 32050 L 5479 31124 L 6400 31124 L 6400 29843 L 6498 29843 L 6498 28596 L 6717 28596 L 6717 27511 L 7282 27511 L 7282 26340 L 7694 26340 L 7694 25288 L 8327 25288 L 8327 24719 L 9728 24719 L 9728 23535 L 10122 23535 L 10122 22481 L 10731 22481 L 10731 21219 L 11068 21219 L 11068 20260 L 11832 20260 L 11832 19402 L 12719 19402 L 12719 18681 L 13753 18681 L 13753 17399 L 14147 17399 L 14147 16842 L 15341 16842 L 15341 15813 L 16031 15813 L 16031 15227 L 17157 15227 L 17157 14012 L 17695 14012 L 17695 13399 L 18782 13399 L 18782 12438 L 19572 12438 L 19572 12015 L 20791 12015 L 20791 11392 L 21840 11392 L 21840 10247 L 22519 10247 L 22519 10010 L 23828 10010 L 23828 9084 L 24678 9084 L 24678 8491 L 25744 8491 L 25744 7863 L 26788 7863 L 26788 6987 L 27707 6987 L 27707 6573 L 28870 6573 L 28870 5960 L 29935 5960 L 29935 5408 L 31033 5408 L 31033 4964 L 32177 4964 L 32177 4548 L 33332 4548 L 33332 4435 L 34588 4435 L 34588 4188 L 35787 4188 L 35787 4063 L 37014 4063 L 37014 3490 L 38116 3490 L 38116 3175 L 39292 3175 L 39292 3040 L 40506 3040 L 40506 2347 L 41616 2347 L 41616 2950 L 42946 2950 L 42946 2088 L 44053 2088 L 44053 2542 L 45327 2542 L 45327 2293 L 46520 2293 L 46520 2372 L 47737 2372 L 47737 1604 L 48928 1604 L 48928 1823 L 50154 1823 L 50154 2178 L 51365 2178 L 51365 1738 L 52602 1738 L 52602 1788 L 53826 1788 L 53826 2273 L 55007 2273 L 55007 2068 L 56260 2068 L 56260 2614 L 57414 2614 L 57414 3231 L 58537 3231 L 58537 2920 L 59832 2920 L 59832 3681 L 60904 3681 L 60904 3946 L 62081 3946 L 62081 4131 L 63283 4131 L 63283 4652 L 64387 4652 L 64387 4844 L 65596 4844 L 65596 5340 L 66703 5340 L 66703 5487 L 67945 5487 L 67945 5728 L 69166 5728 L 69166 6794 L 70019 6794 L 70019 7116 L 71206 7116 L 71206 7226 L 72517 7226 L 72517 7707 L 73651 7707 L 73651 8446 L 74640 8446 L 74640 9118 L 75664 9118 L 75664 10000 L 76545 10000 L 76545 10362 L 77777 10362 L 77777 11195 L 78686 11195 L 78686 12344 L 79340 12344 L 79340 12818 L 80515 12818 L 80515 13383 L 81638 13383 L 81638 14591 L 82196 14591 L 82196 14977 L 83505 14977 L 83505 16181 L 84036 16181 L 84036 16826 L 85122 16826 L 85122 17980 L 85670 17980 L 85670 19070 L 86263 19070 L 86263 19578 L 87553 19578 L 87553 20767 L 88016 20767 L 88016 21839 L 88608 21839 L 88608 22815 L 89324 22815 L 89324 23773 L 90072 23773 L 90072 24865 L 90613 24865 L 90613 25784 L 91439 25784 L 91439 26819 L 92080 26819 L 92080 27995 L 92456 27995 L 92456 28855 L 93456 28855 L 93456 30075 L 93733 30075 L 93733 31143 L 94332 31143 L 94332 32193 L 94995 32193 L 94995 33560 L 94829 33560 L 94829 34660 L 95352 34660 L 95352 35816 L 95717 35816 L 95717 36836 L 96569 36836 L 96569 38156 L 96354 38156 L 96354 39394 L 96376 39394 L 96376 40441 L 97281 40441 L 97281 41617 L 97650 41617 L 97650 42900 L 97353 42900 L 97353 44047 L 97963 44047 L 97963 45312 L 97609 45312 L 97609 46476 L 98312 46476 L 98312 47743 L 97494 47743 L 97494 48929 L 98347 48929 L 98347 50153Z " stroke="red" stroke-width="0.15%" fill="white"/><path d="M 84879 84065 L 14147 84065 L 14147 16842 L 84879 16842Z " stroke="green" stroke-width="0.15%" fill="none"/><path d="M 5601 67730 L 94800 67730 L 94800 50143 L 5601 50143Z " stroke="blue" stroke-width="0.15%" fill="none"/></svg>
